<svg width="84" height="106" viewBox="0 0 84 106" fill="none" xmlns="http://www.w3.org/2000/svg">
<path d="M71.6679 106L51.8609 98.0074C62.7434 71.2318 63.0821 59.2008 62.4638 48.26C62.372 46.581 62.1338 44.9132 61.7519 43.2754C59.1329 29.9851 51.166 23.2679 40.3685 21.9694C32.5117 21.0154 26.3077 22.7718 21.375 25.6105V11.0424C27.4338 7.68004 34.3082 5.88281 41.4786 5.88281C52.4117 5.88281 62.6584 9.82018 70.3286 16.9678C78.4481 24.5298 83.1012 34.9385 83.7961 47.0543C84.6935 62.8175 82.9742 78.1775 71.6679 106Z" fill="url(#paint0_linear_275_4958)"/>
<path d="M60.9037 70.119C59.8936 74.8927 58.3613 80.401 56.0561 86.973C51.5159 88.6003 46.7269 89.4293 41.9022 89.4232C18.7984 89.4232 0 70.6835 0 47.6518V0H21.3727V47.6603C21.3723 49.4226 21.6002 51.1776 22.0506 52.8818H22.0421C24.7376 64.0765 32.8486 72.0525 42.83 73.2603C50.2163 74.156 56.1236 72.663 60.9037 70.119Z" fill="url(#paint1_linear_275_4958)"/>
<path d="M60.9023 70.1341C56.1222 72.6781 50.216 74.1727 42.8328 73.277C32.8488 72.0691 24.7378 64.0932 22.0449 52.8985C24.3672 61.6599 32.3931 68.1403 41.9029 68.1403C53.1667 68.1403 62.3368 59.0576 62.4298 47.8545C62.4468 47.9812 62.4553 48.1163 62.4638 48.243C62.8179 54.3852 62.8599 60.874 60.9023 70.1341Z" fill="url(#paint2_linear_275_4958)"/>
<path d="M61.7483 43.272C60.7228 38.9376 58.6886 35.2796 55.7406 32.5252C52.0365 29.0802 46.9772 27.1854 41.4767 27.1854C30.2055 27.1854 21.373 36.1747 21.373 47.6567V25.6055C26.3053 22.7663 32.5097 21.0093 40.3661 21.9638C51.1625 23.2666 59.1294 29.9817 61.7483 43.272Z" fill="url(#paint3_linear_275_4958)"/>
<defs>
<linearGradient id="paint0_linear_275_4958" x1="31.8269" y1="5.45775" x2="77.3382" y2="84.1374" gradientUnits="userSpaceOnUse">
<stop stop-color="#EF5266"/>
<stop offset="1" stop-color="#FFD528"/>
</linearGradient>
<linearGradient id="paint1_linear_275_4958" x1="45.9699" y1="92.4776" x2="-3.46603" y2="1.89175" gradientUnits="userSpaceOnUse">
<stop stop-color="#333333"/>
<stop offset="0.8" stop-color="#727474"/>
</linearGradient>
<linearGradient id="paint2_linear_275_4958" x1="62.7472" y1="63.4757" x2="22.2235" y2="52.2462" gradientUnits="userSpaceOnUse">
<stop stop-color="#727474"/>
<stop offset="1" stop-color="#333333"/>
</linearGradient>
<linearGradient id="paint3_linear_275_4958" x1="21.372" y1="34.6796" x2="61.7483" y2="34.6796" gradientUnits="userSpaceOnUse">
<stop stop-color="#CE1E4D"/>
<stop offset="1" stop-color="#F69055"/>
</linearGradient>
</defs>
</svg>
